<?xml version="1.0" encoding="UTF-8"?>
<svg width="166px" height="43px" viewBox="0 0 166 43" version="1.1" xmlns="http://www.w3.org/2000/svg" xmlns:xlink="http://www.w3.org/1999/xlink">
    <title>Logo new备份</title>
    <defs>
        <path d="M27.951688,12.6288733 C31.999797,16.6809967 32.1768175,23.1392699 28.4857591,27.4027668 L28.2767208,27.6373405 L32.1674297,31.5318596 L31.5194297,32.2188596 L29.4434297,30.1408596 L29.4775791,30.083788 L26.9913534,27.5946017 C27.090681,27.5029409 27.1885744,27.4088712 27.2849583,27.3123926 C31.1451652,23.4484227 31.1451652,17.1606817 27.2849583,13.2966802 C23.424783,9.43223711 17.1432228,9.43223711 13.2830159,13.2966802 C9.42280898,17.1606817 9.42280898,23.4484227 13.2830159,27.3123926 C13.6527565,27.6824997 14.0447119,28.0171566 14.4546267,28.3163635 L14.0969806,29.2209837 C13.5764371,28.8582078 13.0805723,28.4444688 12.6163171,27.9797603 C8.38180072,23.741075 8.38180072,16.8680315 12.6163171,12.6288733 C16.8508645,8.39018808 23.7171717,8.39018808 27.951688,12.6288733 Z" id="path-1"></path>
        <mask id="mask-2" maskContentUnits="userSpaceOnUse" maskUnits="objectBoundingBox" x="-1" y="-1" width="24.7271633" height="24.769516">
            <rect x="8.44042969" y="8.44985962" width="24.7271633" height="24.769516" fill="white"></rect>
            <use xlink:href="#path-1" fill="black"></use>
        </mask>
        <path d="M16.8338077,10.5607548 L16.8338077,22.0319214 L15.7249018,22.0319214 L15.7249018,11.653248 L1.10890592,11.653248 L1.10890592,22.0319214 L0,22.0319214 L0,11.653248 L0,9.16479423 L0,0.166907534 L1.10890592,0.166907534 L1.10890592,9.16479423 L1.10890592,10.5607548 L16.8338077,10.5607548 Z M41.650048,1.53252284 C43.2620688,2.52385743 44.5352568,3.86418339 45.4696132,5.55349949 C46.4039683,7.2327007 46.8711478,9.09904288 46.8711478,11.152523 C46.8711478,13.1958876 46.4039683,15.0622276 45.4696132,16.751544 C44.5352568,18.4307446 43.256937,19.7710697 41.6346486,20.7725207 C40.0123602,21.7739716 38.1641825,22.2746983 36.0901178,22.2746983 C34.0263205,22.2746983 32.183279,21.7739716 30.5609912,20.7725207 C28.9489703,19.7710697 27.6757817,18.4307446 26.741426,16.751544 C25.8070699,15.0622276 25.3398914,13.1958876 25.3398914,11.152523 C25.3398914,11.1491507 25.3398914,11.1440928 25.3398914,11.1373491 C25.3398914,11.1339769 25.3398914,11.1289189 25.3398914,11.1221753 L26.5412096,11.1221753 L26.5412096,11.1373491 C26.5412096,11.1440928 26.5412096,11.1491507 26.5412096,11.152523 C26.5412096,12.9935746 26.9467779,14.677832 27.7579221,16.2052974 C28.5793341,17.7226473 29.7087756,18.9365274 31.146246,19.8469374 C32.5837167,20.7573474 34.2316737,21.2125527 36.0901178,21.2125527 C37.9588292,21.2125527 39.6119225,20.7573474 41.0493938,19.8469374 C42.4971314,18.9365274 43.6265735,17.7226473 44.4377177,16.2052974 C45.2591293,14.677832 45.6698346,12.9935746 45.6698346,11.152523 C45.6698346,9.30135588 45.2591293,7.61709631 44.4377177,6.0997461 C43.6265735,4.5722804 42.5022633,3.36345834 41.0647932,2.47327995 C39.6375906,1.58310155 37.9845023,1.12283971 36.1055221,1.09249322 L36.1055221,0 C38.1898542,0.0303464916 40.0380271,0.541187032 41.650048,1.53252284 Z M71.6780074,1.53252284 C73.2900283,2.52385743 74.5632163,3.86418339 75.4975727,5.55349949 C76.4319278,7.2327007 76.8991072,9.09904288 76.8991072,11.152523 C76.8991072,13.1958876 76.4319278,15.0622276 75.4975727,16.751544 C74.5632163,18.4307446 73.2848964,19.7710697 71.6626081,20.7725207 C70.0403197,21.7739716 68.1921419,22.2746983 66.1180772,22.2746983 C64.05428,22.2746983 62.2112384,21.7739716 60.5889507,20.7725207 C58.9769298,19.7710697 57.7037412,18.4307446 56.7693854,16.751544 C55.8350294,15.0622276 55.3678509,13.1958876 55.3678509,11.152523 C55.3678509,11.1491507 55.3678509,11.1440928 55.3678509,11.1373491 C55.3678509,11.1339769 55.3678509,11.1289189 55.3678509,11.1221753 L56.5691641,11.1221753 L56.5691641,11.1373491 C56.5691641,11.1440928 56.5691641,11.1491507 56.5691641,11.152523 C56.5691641,12.9935746 56.9747374,14.677832 57.7858816,16.2052974 C58.6072936,17.7226473 59.7367351,18.9365274 61.1742055,19.8469374 C62.6116762,20.7573474 64.2596332,21.2125527 66.1180772,21.2125527 C67.9867887,21.2125527 69.639877,20.7573474 71.0773484,19.8469374 C72.5250859,18.9365274 73.654528,17.7226473 74.4656722,16.2052974 C75.2870839,14.677832 75.6977891,12.9935746 75.6977891,11.152523 C75.6977891,9.30135588 75.2870839,7.61709631 74.4656722,6.0997461 C73.654528,4.5722804 72.5302228,3.36345834 71.0927527,2.47327995 C69.6655501,1.58310155 68.0124568,1.12283971 66.1334766,1.09249322 L66.1334766,0 C68.2178088,0.0303464916 70.0659866,0.541187032 71.6780074,1.53252284 Z M95.7301996,22.0319214 L86.5047175,12.2601876 L86.5047175,22.0319214 L85.3958054,22.0319214 L85.3958054,11.0918276 L85.4112147,11.0918276 L85.3958054,11.0918276 L94.8831162,0.166907534 L96.4232598,0.166907534 L86.9513583,11.0614798 L97.3165512,22.0319214 L95.7301996,22.0319214 Z" id="path-3"></path>
        <mask id="mask-4" maskContentUnits="userSpaceOnUse" maskUnits="objectBoundingBox" x="-1" y="-1" width="99.3165512" height="24.2746983">
            <rect x="-1" y="-1" width="99.3165512" height="24.2746983" fill="white"></rect>
            <use xlink:href="#path-3" fill="black"></use>
        </mask>
    </defs>
    <g id="页面-1" stroke="none" stroke-width="1" fill="none" fill-rule="evenodd">
        <g id="1icon" transform="translate(-136.000000, -87.000000)">
            <g id="Logo-new备份" transform="translate(136.000000, 88.000000)">
                <g id="Group-9">
                    <g id="Group-4" fill="#7551FF">
                        <path d="M15,0 L26.9580383,0 C35.2423096,2.54560899e-16 41.9580383,6.71572875 41.9580383,15 L41.9580383,26.9999695 C41.9580383,35.2842407 35.2423096,41.9999695 26.9580383,41.9999695 L15,41.9999695 C6.71572875,41.9999695 2.79088747e-15,35.2842407 0,26.9999695 L0,15 C7.61826213e-16,6.71572875 6.71572875,3.29815278e-15 15,0 Z" id="Rectangle-190"></path>
                    </g>
                    <use id="Subtract" stroke="#FFFFFF" mask="url(#mask-2)" stroke-width="2" fill="#FFFFFF" stroke-dasharray="0,0" xlink:href="#path-1"></use>
                </g>
                <g id="Group-3" transform="translate(67.447510, 0.000000)" fill="#FFFFFF">
                    <use id="HOOK" stroke="#FFFFFF" mask="url(#mask-4)" stroke-width="2" stroke-linejoin="round" stroke-dasharray="0,0" xlink:href="#path-3"></use>
                    <path d="M32.1521096,33.5731058 C32.1445166,33.7900448 32.1331271,33.9620998 32.1179411,34.0892708 L32.1748888,34.0892708 C32.3495287,33.8349288 32.5887095,33.6217308 32.8924312,33.4496758 C33.1961528,33.2776208 33.5871945,33.1915932 34.065556,33.1915932 C34.8248599,33.1915932 35.4323033,33.4534158 35.8878857,33.9770613 C36.351061,34.4932261 36.582648,35.2674737 36.582648,36.2998035 C36.582648,36.9880232 36.4763461,37.564033 36.263741,38.0278334 C36.0587288,38.4916337 35.7663965,38.8394842 35.3867447,39.0713844 C35.0070928,39.3032845 34.5666967,39.4192347 34.065556,39.4192347 C33.5871945,39.4192347 33.1961528,39.3332066 32.8924312,39.1611516 C32.5887095,38.9890967 32.3495287,38.7833791 32.1748888,38.5439983 L32.0951618,38.5439983 L31.8901497,39.3070246 L31.1726074,39.3070246 L31.1726074,30.7790833 L32.1748888,30.7790833 L32.1748888,32.8549637 C32.1748888,33.1093061 32.1672957,33.3486866 32.1521096,33.5731058 Z M32.869652,34.2575854 C32.6190817,34.414679 32.4406451,34.6615406 32.3343426,34.99817 C32.22804,35.3273186 32.1748888,35.7499754 32.1748888,36.26614 L32.1748888,36.311024 C32.1748888,37.0516084 32.2963774,37.6201377 32.5393547,38.0166122 C32.789925,38.4056061 33.2493039,38.6001034 33.9174914,38.6001034 C34.4641905,38.6001034 34.8704181,38.4018662 35.1361745,38.0053917 C35.4095238,37.6089172 35.5461983,37.0366474 35.5461983,36.2885823 C35.5461983,35.5330368 35.4095238,34.9645074 35.1361745,34.5829941 C34.8704181,34.2014809 34.4565975,34.010724 33.8947123,34.010724 C33.4619091,34.010724 33.1202224,34.093011 32.869652,34.2575854 Z M38.6407772,33.2925822 L39.9619659,36.7149794 C40.0378963,36.9169569 40.1062341,37.1114536 40.1669784,37.2984699 C40.2353157,37.4854861 40.2960596,37.668762 40.3492109,37.8482976 C40.4023622,38.0203526 40.4441244,38.1886671 40.4744966,38.3532414 L40.5200549,38.3532414 C40.565613,38.1662251 40.6377463,37.923104 40.7364559,37.623878 C40.8351655,37.3171713 40.9376722,37.0104649 41.0439747,36.7037583 L42.285436,33.2925822 L43.3674449,33.2925822 L40.7364559,40.1373764 C40.5921882,40.511409 40.4213449,40.8368177 40.2239258,41.1136019 C40.0340998,41.3978666 39.798716,41.614805 39.5177735,41.764418 C39.2444241,41.9215116 38.9103302,42.0000582 38.5154921,42.0000582 C38.3332591,42.0000582 38.1738052,41.9888379 38.0371305,41.966396 C37.9004558,41.9514347 37.7827636,41.9327323 37.684054,41.9102903 L37.684054,41.124823 C37.7675775,41.1397843 37.8662869,41.154745 37.9801825,41.1697063 C38.1016712,41.1846676 38.2269568,41.1921486 38.3560384,41.1921486 C38.5914227,41.1921486 38.7926382,41.147264 38.9596851,41.0574962 C39.1343251,40.9752091 39.2823889,40.8517791 39.4038775,40.6872048 C39.5253662,40.5301112 39.6278722,40.3430941 39.7113957,40.1261553 L40.0303036,39.3294669 L37.5701587,33.2925822 L38.6407772,33.2925822 Z M49.9159065,39.3070246 L49.9159065,32.181705 L47.3760354,32.181705 L47.3760354,31.2952482 L53.4694494,31.2952482 L53.4694494,32.181705 L50.9409668,32.181705 L50.9409668,39.3070246 L49.9159065,39.3070246 Z M56.1080005,33.7189788 C56.1004075,33.8685919 56.0890186,34.0032438 56.0738326,34.1229342 L56.142171,34.1229342 C56.2712527,33.913476 56.4345014,33.741421 56.6319204,33.6067693 C56.8293395,33.4721175 57.0495372,33.3711289 57.2925144,33.303803 C57.5354917,33.2289966 57.7860628,33.1915932 58.0442263,33.1915932 C58.5377738,33.1915932 58.9477982,33.2701401 59.274299,33.4272335 C59.6083928,33.5768468 59.8589639,33.8124869 60.0260109,34.1341547 C60.1930574,34.4558227 60.2765798,34.8747394 60.2765798,35.3909043 L60.2765798,39.3070246 L59.2856875,39.3070246 L59.2856875,35.4582298 C59.2856875,34.9719876 59.1755898,34.6091764 58.9553917,34.3697955 C58.7351935,34.1304147 58.3897091,34.010724 57.9189405,34.010724 C57.4633581,34.010724 57.1064847,34.0967516 56.8483214,34.2688065 C56.590158,34.4333809 56.4041292,34.6802425 56.2902336,35.0093911 C56.1839311,35.3310591 56.13078,35.7275336 56.13078,36.1988145 L56.13078,39.3070246 L55.1284992,39.3070246 L55.1284992,30.7790833 L56.13078,30.7790833 L56.13078,33.2813613 C56.13078,33.4234936 56.1231867,33.5693659 56.1080005,33.7189788 Z M66.4402002,33.5170014 C66.819852,33.7414209 67.1083875,34.0593481 67.3058067,34.4707839 C67.5108187,34.8747392 67.6133256,35.3497607 67.6133256,35.8958481 L67.6133256,36.4905597 L63.4333553,36.4905597 C63.4485413,37.1712989 63.6231814,37.6912044 63.9572751,38.0502757 C64.2989621,38.4018662 64.7735289,38.5776611 65.380972,38.5776611 C65.7682172,38.5776611 66.1099039,38.5439985 66.4060322,38.4766727 C66.709754,38.4018662 67.021067,38.2971369 67.3399747,38.1624852 L67.3399747,39.0265005 C67.02866,39.1611522 66.7211422,39.2584005 66.4174207,39.3182457 C66.1136992,39.3855716 65.7530304,39.4192347 65.3354131,39.4192347 C64.758342,39.4192347 64.245811,39.3032845 63.7978215,39.0713844 C63.3574252,38.8394842 63.0119431,38.4953742 62.7613728,38.0390545 C62.5183955,37.5752542 62.3969066,37.0104651 62.3969066,36.3446874 C62.3969066,35.68639 62.5070042,35.1216005 62.7272024,34.6503196 C62.9549936,34.1790388 63.2701071,33.8162275 63.6725383,33.5618853 C64.0825625,33.3075434 64.5571267,33.1803723 65.0962326,33.1803723 C65.6201524,33.1803723 66.0681412,33.2925821 66.4402002,33.5170014 Z M63.9458867,34.4483423 C63.6725371,34.7475684 63.509286,35.166485 63.4561348,35.7050918 L66.5654859,35.7050918 C66.5654859,35.3609819 66.512335,35.0617553 66.4060322,34.8074131 C66.2997297,34.5530709 66.1364783,34.3548337 65.9162803,34.2127014 C65.7036752,34.0630884 65.4265286,33.9882824 65.0848417,33.9882824 C64.6064802,33.9882824 64.2268291,34.1416355 63.9458867,34.4483423 Z M77.3245245,36.8271889 L74.1012786,36.8271889 L73.1331658,39.3070246 L72.096717,39.3070246 L75.274404,31.2615857 L76.196958,31.2615857 L79.363254,39.3070246 L78.3040283,39.3070246 L77.3245245,36.8271889 Z M75.9919454,33.1803723 C75.9387942,33.0232785 75.8856431,32.8624443 75.8324918,32.6978699 C75.7869337,32.5258149 75.7489693,32.3949038 75.718597,32.3051362 C75.6806319,32.4547491 75.6388697,32.6081026 75.5933113,32.7651964 C75.5553462,32.9148093 75.5135839,33.0532011 75.4680256,33.1803723 C75.4300604,33.3075431 75.395894,33.4160123 75.3655218,33.5057803 L74.4429678,35.9295108 L77.0170082,35.9295108 L76.1058402,33.5057803 C76.0830609,33.4459349 76.0450967,33.3374657 75.9919454,33.1803723 Z M85.5212705,31.912402 C86.0072252,32.3238378 86.2502029,32.903588 86.2502029,33.6516532 C86.2502029,33.9808018 86.1932587,34.2987292 86.0793632,34.6054357 C85.9730607,34.9046619 85.7946229,35.1739657 85.5440524,35.4133465 C85.2934822,35.6527271 84.9593889,35.8434834 84.5417717,35.9856159 C84.1241544,36.1202674 83.6116231,36.1875933 83.0041801,36.1875933 L82.0702351,36.1875933 L82.0702351,39.3070246 L81.0451774,39.3070246 L81.0451774,31.2952482 L83.1978016,31.2952482 C84.2608273,31.2952482 85.0353161,31.5009662 85.5212705,31.912402 Z M82.0702351,32.1592633 L82.0702351,35.323578 L82.8902853,35.323578 C83.4066121,35.323578 83.8356188,35.2712137 84.1773055,35.1664846 C84.5189924,35.0542749 84.773359,34.87848 84.9404058,34.6390991 C85.1074528,34.3997183 85.1909772,34.0855308 85.1909772,33.6965371 C85.1909772,33.1803722 85.0239281,32.7951188 84.6898343,32.5407764 C84.3557406,32.2864345 83.8280226,32.1592633 83.1066839,32.1592633 L82.0702351,32.1592633 Z M87.8614716,39.3070246 L87.8614716,38.7235341 L88.8181935,38.5103355 L88.8181935,32.1031585 L87.8614716,31.8787386 L87.8614716,31.2952482 L90.7999781,31.2952482 L90.7999781,31.8787386 L89.8432512,32.1031585 L89.8432512,38.5103355 L90.7999781,38.7235341 L90.7999781,39.3070246 L87.8614716,39.3070246 Z M97.1993997,38.3869049 C96.9640156,38.7160534 96.6261243,38.9703955 96.185728,39.1499311 C95.7529246,39.3294667 95.2403936,39.4192347 94.6481364,39.4192347 C94.3444149,39.4192347 94.0520839,39.4042728 93.7711413,39.3743502 C93.4977919,39.3444276 93.2472232,39.3032841 93.019432,39.2509195 C92.7916408,39.1910743 92.5904252,39.1200081 92.4157853,39.037721 L92.4157853,38.0727173 C92.6891348,38.1924077 93.027021,38.3008769 93.4294521,38.3981254 C93.8394763,38.4953738 94.2608919,38.5439983 94.6936953,38.5439983 C95.0961264,38.5439983 95.4340177,38.4916339 95.707367,38.3869049 C95.9807166,38.2821758 96.1857299,38.1325625 96.3224047,37.9380655 C96.4590794,37.7435687 96.5274123,37.5154088 96.5274123,37.253586 C96.5274123,36.9917633 96.4704683,36.7710843 96.3565726,36.5915487 C96.2426771,36.4120132 96.0452544,36.2474385 95.7643119,36.0978254 C95.4909624,35.9407318 95.107516,35.7761577 94.6139685,35.6041028 C94.2646886,35.4769318 93.957171,35.3422799 93.6914145,35.2001474 C93.4332512,35.0505345 93.2168489,34.8822199 93.0422089,34.6952036 C92.867569,34.5081873 92.7346913,34.2949888 92.6435748,34.055608 C92.5600514,33.8162274 92.5182891,33.5394434 92.5182891,33.2252557 C92.5182891,32.7988588 92.6283892,32.4360472 92.8485874,32.136821 C93.0687856,31.8301148 93.3725053,31.5944746 93.7597504,31.4299001 C94.1545885,31.2653257 94.6063776,31.1830385 95.1151113,31.1830385 C95.5631006,31.1830385 95.9731225,31.224182 96.3451816,31.306469 C96.7172406,31.3887564 97.0551319,31.4972261 97.3588534,31.6318778 L97.0399461,32.4958925 C96.7590036,32.3762023 96.4514859,32.2752137 96.1173921,32.1929267 C95.7908913,32.1106393 95.4492022,32.0694954 95.0923294,32.0694954 C94.7506426,32.0694954 94.4659025,32.1181198 94.2381113,32.2153684 C94.0103201,32.3126169 93.839478,32.4510088 93.7255824,32.6305443 C93.6116868,32.8025993 93.5547378,33.0045768 93.5547378,33.2364771 C93.5547378,33.5057806 93.6116868,33.7302004 93.7255824,33.9097357 C93.839478,34.0892714 94.0255069,34.2501049 94.2836702,34.3922372 C94.5418336,34.5343695 94.8911136,34.6877232 95.3315099,34.8522977 C95.8098713,35.0243526 96.2123024,35.2113689 96.5388032,35.4133465 C96.872897,35.6078434 97.1234705,35.8434837 97.2905175,36.1202677 C97.4651575,36.3970518 97.552475,36.7449018 97.552475,37.1638181 C97.552475,37.6425798 97.4347841,38.0502756 97.1993997,38.3869049 Z" id="by-The-APIS"></path>
                </g>
            </g>
        </g>
    </g>
</svg>